<svg xmlns="http://www.w3.org/2000/svg" xmlns:xlink="http://www.w3.org/1999/xlink" width="312" zoomAndPan="magnify" viewBox="0 0 234 262.499992" height="350" preserveAspectRatio="xMidYMid meet" version="1.0"><defs><clipPath id="c5c7301bd2"><path d="M 0.222656 0 L 233.777344 0 L 233.777344 262 L 0.222656 262 Z M 0.222656 0 " clip-rule="nonzero"/></clipPath><clipPath id="f58f6758d7"><path d="M 28.839844 43.4375 L 203.773438 43.4375 L 203.773438 218.367188 L 28.839844 218.367188 Z M 28.839844 43.4375 " clip-rule="nonzero"/></clipPath><clipPath id="94a1f46c01"><path d="M 116.304688 43.4375 C 68 43.4375 28.839844 82.597656 28.839844 130.902344 C 28.839844 179.207031 68 218.367188 116.304688 218.367188 C 164.613281 218.367188 203.773438 179.207031 203.773438 130.902344 C 203.773438 82.597656 164.613281 43.4375 116.304688 43.4375 " clip-rule="nonzero"/></clipPath><clipPath id="ddac3c724b"><path d="M 45.832031 59.832031 L 188.058594 59.832031 L 188.058594 202.058594 L 45.832031 202.058594 Z M 45.832031 59.832031 " clip-rule="nonzero"/></clipPath></defs><g clip-path="url(#c5c7301bd2)"><path fill="#ffffff" d="M 0.222656 0 L 233.777344 0 L 233.777344 262 L 0.222656 262 Z M 0.222656 0 " fill-opacity="1" fill-rule="nonzero"/><path fill="#f3d8cf" d="M 0.222656 0 L 233.777344 0 L 233.777344 262 L 0.222656 262 Z M 0.222656 0 " fill-opacity="1" fill-rule="nonzero"/></g><g clip-path="url(#f58f6758d7)"><g clip-path="url(#94a1f46c01)"><path fill="#fbfaf9" d="M 28.839844 43.4375 L 203.773438 43.4375 L 203.773438 218.367188 L 28.839844 218.367188 Z M 28.839844 43.4375 " fill-opacity="1" fill-rule="nonzero"/></g></g><g clip-path="url(#ddac3c724b)"><path fill="#fbe3d2" d="M 116.957031 59.828125 C 156.230469 59.828125 188.070312 91.667969 188.070312 130.941406 C 188.070312 170.214844 156.230469 202.054688 116.957031 202.054688 C 77.679688 202.054688 45.839844 170.214844 45.839844 130.941406 C 45.839844 91.667969 77.679688 59.828125 116.957031 59.828125 " fill-opacity="1" fill-rule="evenodd"/></g><path stroke-linecap="round" transform="matrix(0.0335051, 0, 0, -0.0335051, 45.595647, 202.193721)" fill="none" stroke-linejoin="round" d="M 1947.875445 1717.509072 C 1936.44994 1718.325179 1925.141022 1719.0247 1919.544856 1727.535535 C 1913.832103 1736.046371 1913.832103 1752.135348 1901.124143 1801.80132 C 1888.416183 1851.467291 1863.000264 1934.593672 1834.669674 2003.379877 C 1806.455671 2072.166082 1775.210412 2126.378938 1744.664673 2150.046056 C 1714.002348 2173.713174 1684.039543 2166.717967 1660.255839 2161.588148 C 1636.588721 2156.341743 1619.333876 2152.960726 1617.585074 2136.755163 C 1615.952859 2120.549599 1629.7101 2091.636075 1641.835126 2070.300693 C 1653.960152 2048.965311 1664.336376 2035.091483 1678.793138 2029.37873 C 1693.2499 2023.549391 1711.670612 2025.881127 1722.746357 2031.127532 C 1733.705515 2036.257351 1737.203119 2044.301839 1733.705515 2061.673271 C 1730.207912 2078.928116 1719.831687 2105.62649 1705.374926 2122.881335 C 1690.918164 2140.252766 1672.497451 2148.297255 1652.794284 2151.211924 C 1633.207704 2154.010007 1612.338669 2151.794858 1607.20885 2140.252766 C 1601.962444 2128.710674 1612.338669 2107.841639 1628.544232 2078.461768 C 1644.749796 2048.965311 1666.668112 2010.841431 1687.42056 1950.799235 C 1708.289595 1890.757039 1727.876176 1808.796527 1744.664673 1749.337265 C 1761.453171 1689.761416 1775.210412 1652.803404 1776.959214 1647.090651 C 1778.708016 1641.377899 1768.331791 1666.677232 1756.206765 1678.335911 C 1744.081739 1689.761416 1730.207912 1687.546267 1716.917018 1695.590755 C 1703.626124 1703.635244 1690.918164 1722.172543 1673.080385 1755.050017 C 1655.12602 1787.927492 1632.041836 1835.261728 1602.661965 1885.510634 C 1573.165508 1935.759539 1537.373364 1988.923115 1502.164154 2024.715259 C 1466.838357 2060.507403 1432.212081 2078.928116 1403.998078 2083.591587 C 1375.667488 2088.255059 1353.749172 2078.928116 1343.955882 2067.50261 C 1334.046005 2055.843931 1336.377741 2042.08669 1345.588097 2020.168374 C 1354.91504 1998.133471 1371.004017 1968.170667 1384.877845 1950.216301 C 1398.751672 1932.378523 1410.293764 1926.549183 1424.167592 1927.715051 C 1438.04142 1928.880919 1454.130397 1936.925407 1458.210934 1949.633367 C 1462.291472 1962.341327 1454.130397 1979.712759 1443.754173 1999.882273 C 1433.377948 2020.168374 1420.669989 2043.252558 1407.962029 2053.628782 C 1395.370655 2064.005007 1382.662696 2061.673271 1368.205934 2058.758601 C 1353.749172 2055.843931 1337.543608 2052.462915 1334.745526 2045.467707 C 1331.830856 2038.589087 1342.20708 2028.212863 1356.547255 2004.545745 C 1371.004017 1980.76204 1389.541316 1943.920615 1410.876698 1897.052726 C 1432.212081 1850.301424 1456.462133 1793.756831 1489.456194 1734.880503 C 1522.333668 1676.004175 1563.955151 1614.796111 1582.958798 1585.299654 C 1601.962444 1555.803196 1598.581428 1558.134932 1585.873468 1565.130139 C 1573.165508 1572.00876 1551.247191 1583.550852 1523.499536 1589.963125 C 1495.75188 1596.258812 1462.291472 1597.42468 1440.95609 1600.922283 C 1419.504121 1604.3033 1410.293764 1610.13264 1399.91754 1624.006467 C 1389.541316 1637.763708 1377.999224 1659.798611 1353.749172 1683.465729 C 1329.49912 1707.132847 1292.541108 1732.548767 1260.129981 1757.381753 C 1227.835441 1782.214739 1200.087785 1806.464791 1192.043297 1822.670355 C 1183.998808 1838.759332 1195.5409 1846.920407 1210.464009 1849.71849 C 1225.503705 1852.633159 1244.041004 1850.301424 1265.376386 1837.593464 C 1286.711769 1824.885504 1310.961821 1801.80132 1313.87649 1784.546475 C 1316.79116 1767.175043 1298.253861 1755.632951 1287.294703 1751.552414 C 1276.335545 1747.588463 1272.837941 1751.086067 1258.964113 1762.628159 C 1245.206872 1774.170251 1220.840233 1793.756831 1205.33419 1806.464791 C 1189.711561 1819.172751 1182.83294 1824.885504 1180.501205 1837.127116 C 1178.169469 1849.252142 1180.501205 1867.672855 1193.209164 1878.049079 C 1205.917124 1888.425303 1229.001308 1890.757039 1258.381179 1887.259435 C 1287.877637 1883.878419 1323.669781 1874.551476 1365.291264 1846.920407 C 1406.912748 1819.172751 1454.130397 1773.004383 1468.004225 1761.462291 C 1481.878052 1749.920199 1462.291472 1773.004383 1436.292618 1794.922699 C 1410.293764 1816.841015 1377.999224 1837.593464 1332.41379 1868.255789 C 1286.711769 1898.801528 1227.835441 1939.257143 1158.582888 1990.088983 C 1089.213749 2040.920823 1009.584973 2102.0123 915.499435 2160.422281 C 821.29731 2218.715675 712.75501 2274.210986 633.825754 2315.132949 C 555.013085 2356.171498 505.81346 2382.753286 461.393894 2423.092315 C 450.551323 2432.885605 440.058512 2443.61159 430.032048 2455.037095 M 430.032048 3002.878413 C 449.385455 2996.932487 471.187184 2983.525006 496.253344 2964.1716 C 546.502249 2925.464786 610.042049 2863.090854 714.503811 2789.17483 C 818.965574 2715.375393 964.582472 2629.917277 1070.210103 2580.251305 C 1175.95432 2530.585334 1241.709268 2516.711506 1313.87649 2506.918216 C 1386.043712 2497.124925 1464.623208 2491.295586 1544.834918 2494.093669 C 1625.163215 2497.124925 1707.123728 2508.550431 1781.039751 2525.921862 C 1854.955775 2543.293294 1920.710724 2566.377478 1976.206035 2588.878728 C 2031.58476 2611.379978 2076.58726 2633.298294 2108.998387 2635.63003 C 2141.292927 2637.961766 2160.996095 2620.590334 2194.456503 2594.008546 C 2227.916911 2567.543346 2275.251147 2531.751202 2320.953168 2502.837678 C 2366.538602 2473.924154 2410.375235 2452.005838 2439.288758 2434.634407 C 2468.202282 2417.379562 2482.07611 2404.671602 2510.290112 2393.712444 C 2538.620702 2382.753286 2581.291467 2373.54293 2609.622056 2357.9203 C 2637.952646 2342.29767 2651.709887 2320.379354 2666.749582 2293.797566 C 2681.789278 2267.215779 2697.994842 2236.087106 2727.957646 2198.54616 C 2758.037038 2161.005215 2801.87367 2117.168582 2834.751144 2078.461768 C 2867.745206 2039.754955 2889.663522 2006.294546 2913.913574 1970.502402 C 2938.163626 1934.593672 2964.745413 1896.469792 2988.412532 1864.175251 C 3012.07965 1831.880711 3032.948685 1805.298923 3036.912635 1789.09336 C 3040.993173 1773.004383 3028.285213 1767.175043 3008.582046 1766.009176 C 2988.995465 1764.843308 2962.413678 1768.340911 2928.370336 1789.09336 C 2894.326993 1809.962395 2852.70551 1847.969688 2818.079234 1889.591171 C 2783.452958 1931.212655 2755.705302 1976.215155 2730.872316 2016.087837 C 2706.03933 2055.843931 2684.121014 2090.586794 2669.664252 2119.966665 C 2655.324077 2149.463123 2648.32887 2173.713174 2635.62091 2190.968019 C 2622.91295 2208.339451 2604.375651 2218.715675 2581.874401 2228.042618 C 2559.37315 2237.136387 2532.907949 2245.297463 2493.501615 2260.920092 C 2454.328454 2276.426135 2402.330746 2299.626906 2359.659982 2322.71109 C 2316.872631 2345.795274 2283.412222 2368.879458 2253.915765 2389.631907 C 2224.535894 2410.384355 2199.119974 2428.921654 2174.753336 2443.96135 C 2150.61987 2459.001046 2127.4191 2470.426551 2088.245939 2468.794336 C 2048.956191 2467.045534 1993.46088 2452.005838 1953.704785 2443.378416 C 1913.832103 2434.634407 1889.582051 2432.419258 1872.21062 2437.549077 C 1854.955775 2442.795482 1844.579551 2455.503442 1833.503806 2467.045534 C 1822.661235 2478.587626 1811.002556 2488.96385 1797.828249 2492.461454 C 1784.537355 2495.842471 1769.497659 2492.461454 1783.371487 2497.124925 C 1797.245315 2501.67181 1839.916079 2514.37977 1886.667382 2529.419466 C 1933.418684 2544.342575 1984.250523 2561.714006 2022.957337 2573.256098 C 2061.664151 2584.79819 2088.245939 2590.62753 2121.706347 2577.91957 C 2155.166755 2565.21161 2195.622371 2533.96635 2241.207805 2506.335282 C 2286.793239 2478.587626 2337.625079 2454.337574 2392.537456 2433.002192 C 2447.333247 2411.550223 2506.209575 2393.12951 2553.077464 2371.094607 C 2599.828766 2349.292878 2634.455042 2323.876958 2658.705094 2301.842055 C 2682.955146 2279.923739 2696.828974 2261.503026 2733.786986 2242.382793 C 2770.744998 2223.379146 2830.787194 2203.792566 2890.82939 2185.8382 C 2950.871586 2167.883835 3011.030368 2151.794858 3056.499216 2132.674625 C 3102.201237 2113.670978 3133.329909 2091.636075 3160.494631 2064.005007 C 3187.659353 2036.257351 3210.743537 2002.796943 3256.328971 1979.129825 C 3301.914405 1955.462707 3370.117677 1941.588879 3441.701965 1925.383315 C 3513.286253 1909.294338 3588.368144 1890.757039 3641.53172 1882.129617 C 3694.578709 1873.385608 3725.823968 1874.551476 3762.199046 1855.547829 C 3763.947848 1854.615135 3765.696649 1853.565854 3767.445451 1852.633159 M 3767.445451 1324.611595 C 3735.967018 1328.458959 3702.15685 1335.337579 3667.530574 1344.547936 C 3597.578501 1362.968648 3524.828345 1390.716304 3452.661123 1408.087735 C 3380.493901 1425.34258 3308.909613 1432.337787 3226.832514 1430.588986 C 3144.872002 1428.840184 3052.535265 1418.46396 2950.871586 1409.71995 C 2849.207906 1401.092528 2738.450457 1394.213908 2645.997134 1379.757146 C 2553.543811 1365.300384 2479.744374 1343.382068 2432.876485 1329.50824 C 2386.125183 1315.634412 2366.538602 1309.92166 2327.248855 1339.884464 C 2287.959107 1369.963856 2229.082779 1435.718804 2180.582675 1484.218908 C 2132.082571 1532.719012 2093.958691 1563.964271 2061.081217 1587.631389 C 2028.203743 1611.298507 2000.456087 1627.387484 1980.869507 1648.839453 C 1961.166339 1670.174836 1949.624247 1696.756623 1943.794908 1741.17619 C 1938.082155 1785.712343 1938.082155 1847.969688 1933.418684 1897.752246 C 1928.871799 1947.301631 1919.661443 1984.37623 1909.168632 2018.302986 C 1898.792408 2052.462915 1887.250316 2083.591587 1879.08924 2104.926969 C 1871.044752 2126.378938 1866.497867 2137.92103 1876.874091 2143.633783 C 1887.250316 2149.463123 1912.666235 2149.463123 1929.338146 2145.965519 C 1946.126644 2142.584502 1954.287719 2135.589295 1961.749273 2119.966665 C 1969.210828 2104.460622 1976.206035 2080.21057 1979.120705 2062.256205 C 1982.035374 2044.301839 1980.869507 2032.759747 1968.511307 2026.580648 C 1956.153107 2020.284961 1932.719163 2019.352267 1915.347732 2034.974896 C 1897.9763 2050.480939 1886.900555 2082.658893 1881.304389 2105.62649 C 1875.708223 2128.710674 1875.708223 2142.584502 1889.582051 2151.794858 C 1903.455879 2161.005215 1931.086948 2165.668686 1959.417538 2157.507611 C 1987.748127 2149.463123 2016.545064 2128.710674 2039.162901 2084.757455 C 2061.664151 2040.920823 2077.869714 1973.883419 2093.958691 1918.504695 C 2110.164255 1863.009384 2126.369818 1819.172751 2129.167901 1782.214739 C 2132.082571 1745.256727 2121.706347 1715.177336 2114.71114 1709.464583 C 2107.832519 1703.635244 2104.334915 1722.172543 2107.832519 1739.427388 C 2111.330123 1756.798819 2121.706347 1773.004383 2147.122267 1760.879357 C 2172.538187 1748.754331 2212.993802 1708.298715 2253.915765 1667.8431 C 2294.954314 1627.387484 2336.575798 1587.048455 2368.870338 1555.336849 C 2401.164879 1523.508656 2424.249063 1500.424472 2427.163732 1492.263397 C 2430.078402 1484.218908 2412.706971 1491.214115 2399.416077 1507.886026 C 2386.125183 1524.674524 2376.914827 1551.256311 2383.210513 1564.547205 C 2389.622787 1577.721512 2411.65769 1577.721512 2443.835643 1572.00876 C 2476.24677 1566.296007 2518.917535 1554.637328 2531.042561 1548.341642 C 2543.167587 1542.045955 2524.746874 1540.763501 2504.57736 1546.59284 C 2484.291259 1552.422179 2462.372942 1565.130139 2465.287612 1578.88738 C 2468.202282 1592.761208 2495.833351 1607.800904 2529.99328 1630.885088 C 2564.036622 1653.969272 2604.375651 1685.214531 2634.455042 1710.047517 C 2664.417847 1734.880503 2684.121014 1753.301216 2700.326578 1764.843308 C 2716.415554 1776.501987 2729.123514 1781.048871 2750.575483 1770.672647 C 2771.910866 1760.179836 2801.87367 1734.880503 2830.20426 1722.63889 C 2858.534849 1710.630451 2885.00005 1711.796319 2898.407531 1719.840807 C 2911.698425 1728.001883 2911.698425 1742.924992 2904.586631 1763.327679 C 2897.591423 1783.730367 2883.484422 1809.496048 2868.561313 1823.952809 C 2853.521617 1838.409571 2837.549227 1841.440828 2827.173003 1841.207654 C 2816.913366 1841.091067 2812.249894 1837.593464 2805.954208 1833.629513 C 2799.541934 1829.548975 2791.497446 1824.885504 2796.160918 1811.711197 C 2800.824389 1798.420303 2818.079234 1776.501987 2834.867731 1758.897382 C 2851.656229 1741.292776 2867.978379 1728.001883 2872.758437 1721.589609 C 2877.538496 1715.177336 2870.893049 1715.410509 2852.35575 1724.387692 C 2833.81845 1733.364875 2803.389298 1750.852893 2765.148832 1783.26402 C 2726.791778 1815.675147 2680.62341 1863.009384 2640.867315 1914.424157 C 2600.994634 1965.838931 2567.534226 2021.217655 2536.288966 2053.628782 C 2505.160294 2085.923323 2476.24677 2095.133679 2424.249063 2113.088045 C 2372.251355 2130.925823 2297.169463 2157.507611 2238.992656 2178.95958 C 2180.582675 2200.178375 2139.077778 2216.500526 2103.518808 2212.419988 C 2067.843251 2208.456037 2038.346793 2184.205985 2037.180925 2181.291316 C 2036.015057 2178.376646 2063.296366 2196.797359 2124.271256 2194.465623 C 2185.246147 2192.133887 2279.914619 2169.049703 2349.750105 2135.589295 C 2419.702178 2102.0123 2464.704678 2058.175667 2499.913888 2008.509695 C 2535.123098 1958.843724 2560.539018 1903.464999 2587.70374 1864.758185 C 2614.868462 1826.051372 2643.665398 1804.133055 2669.664252 1793.756831 C 2695.663106 1783.380607 2718.74729 1784.546475 2741.831474 1785.712343 " stroke="#231f20" stroke-width="13.808" stroke-opacity="1" stroke-miterlimit="22.926001"/><path stroke-linecap="round" transform="matrix(0.0335051, 0, 0, -0.0335051, 45.595647, 202.193721)" fill="none" stroke-linejoin="round" d="M 1585.873468 1565.130139 C 1595.899931 1547.408947 1605.809808 1529.687756 1624.230521 1520.82716 C 1642.41806 1511.966564 1668.999848 1511.966564 1712.83648 1504.505009 C 1756.789699 1496.926868 1817.997763 1481.887172 1881.537563 1462.883526 C 1945.077363 1443.879879 2010.832311 1420.795695 2057.000679 1405.173066 C 2103.285634 1389.550436 2129.750835 1381.389361 2126.836166 1391.882172 C 2124.038083 1402.258396 2091.626956 1431.171919 2043.709785 1465.215262 C 1995.792615 1499.258604 1932.252816 1538.548352 1885.26834 1569.677024 C 1838.167278 1600.922283 1807.621539 1624.006467 1838.750212 1601.38863 C 1869.995471 1578.88738 1962.915141 1510.800696 2025.522247 1464.049394 C 2088.245939 1417.298092 2120.540479 1391.882172 2147.705201 1368.797988 C 2174.753336 1345.713804 2196.788239 1324.844768 2222.787092 1315.051478 C 2248.785946 1305.258188 2278.748751 1306.424056 2296.819703 1312.369982 C 2314.890655 1318.315908 2321.069755 1329.15848 2327.248855 1339.884464 " stroke="#231f20" stroke-width="13.807" stroke-opacity="1" stroke-miterlimit="22.926001"/><path stroke-linecap="round" transform="matrix(0.0335051, 0, 0, -0.0335051, 45.595647, 202.193721)" fill="none" stroke-linejoin="round" d="M 2484.291259 2029.262144 C 2455.727496 1990.90509 2427.280319 1952.314863 2383.793447 1922.585232 C 2340.189988 1892.739015 2281.663421 1871.753393 2236.66092 1856.014176 C 2191.891593 1840.27496 2160.646334 1829.898736 2129.517662 1819.405925 " stroke="#231f20" stroke-width="13.807" stroke-opacity="1" stroke-miterlimit="22.926001"/><path stroke-linecap="round" transform="matrix(0.0335051, 0, 0, -0.0335051, 45.595647, 202.193721)" fill="none" stroke-linejoin="round" d="M 1196.706768 2029.02897 C 1233.081846 2008.859456 1269.456924 1988.689941 1299.536315 1977.264436 C 1329.615707 1965.838931 1353.515998 1963.274021 1377.41629 1960.709112 " stroke="#231f20" stroke-width="13.807" stroke-opacity="1" stroke-miterlimit="22.926001"/><path stroke-linecap="round" transform="matrix(0.0335051, 0, 0, -0.0335051, 45.595647, 202.193721)" fill="none" stroke-linejoin="round" d="M 1538.306058 1982.627428 C 1563.605391 1986.474792 1588.788137 1990.438743 1609.307412 1996.034909 C 1629.7101 2001.631075 1645.449316 2008.859456 1661.071946 2015.97125 " stroke="#231f20" stroke-width="13.807" stroke-opacity="1" stroke-miterlimit="22.926001"/><path stroke-linecap="round" transform="matrix(0.0335051, 0, 0, -0.0335051, 45.595647, 202.193721)" fill="none" stroke-linejoin="round" d="M 1797.478488 2081.726198 C 1825.342731 2089.770687 1853.32356 2097.698588 1881.304389 2105.62649 " stroke="#231f20" stroke-width="13.807" stroke-opacity="1" stroke-miterlimit="22.926001"/><path stroke-linecap="round" transform="matrix(0.0335051, 0, 0, -0.0335051, 45.595647, 202.193721)" fill="none" stroke-linejoin="round" d="M 1930.620601 1922.352059 C 1906.603722 1938.790796 1882.586844 1955.34612 1867.780322 1965.722344 C 1853.090387 1976.098568 1847.610807 1980.295693 1842.247815 1984.492817 " stroke="#231f20" stroke-width="13.807" stroke-opacity="1" stroke-miterlimit="22.926001"/><path stroke-linecap="round" transform="matrix(0.0335051, 0, 0, -0.0335051, 45.595647, 202.193721)" fill="none" stroke-linejoin="round" d="M 1680.192179 1742.108884 C 1696.281156 1740.243495 1712.370133 1738.26152 1723.096118 1739.427388 C 1733.938689 1740.593256 1739.301681 1744.906967 1744.664673 1749.337265 " stroke="#231f20" stroke-width="13.807" stroke-opacity="1" stroke-miterlimit="22.926001"/><path stroke-linecap="round" transform="matrix(0.0335051, 0, 0, -0.0335051, 45.595647, 202.193721)" fill="none" stroke-linejoin="round" d="M 1909.868152 1764.493547 C 1920.244377 1766.475523 1930.504014 1768.574085 1940.880238 1770.672647 " stroke="#231f20" stroke-width="13.807" stroke-opacity="1" stroke-miterlimit="22.926001"/><path stroke-linecap="round" transform="matrix(0.0335051, 0, 0, -0.0335051, 45.595647, 202.193721)" fill="none" stroke-linejoin="round" d="M 2980.717803 1869.188483 C 2969.408885 1879.09836 2962.180504 1877.815906 2954.602363 1874.434889 C 2947.140808 1871.170459 2939.329494 1865.574293 2939.562667 1855.198069 C 2939.912428 1844.821845 2948.306676 1829.548975 2958.33314 1817.307362 C 2968.476191 1804.949163 2980.368043 1795.738807 2989.578399 1790.142641 C 2998.788756 1784.546475 3005.434203 1782.447913 3012.895757 1782.91426 C 3020.357312 1783.380607 3028.634974 1786.17869 3030.383775 1792.241203 C 3032.132577 1798.303716 3027.469106 1807.514072 3017.326055 1822.670355 C 3007.299591 1837.943224 2992.026722 1859.162019 2980.717803 1869.188483 Z M 2980.717803 1869.188483 " stroke="#231f20" stroke-width="13.807" stroke-opacity="1" stroke-miterlimit="22.926001"/><path fill="#231f20" d="M 119.964844 132.292969 C 120.355469 131.507812 120.746094 131.117188 121.53125 131.117188 C 122.394531 131.117188 123.09375 131.820312 123.09375 132.679688 C 123.09375 134.246094 121.53125 135.808594 119.964844 137.375 C 118.402344 135.808594 116.839844 134.246094 116.839844 132.679688 C 116.839844 131.820312 117.539062 131.117188 118.402344 131.117188 C 119.183594 131.117188 119.574219 131.507812 119.964844 132.292969 " fill-opacity="1" fill-rule="nonzero"/></svg>