<svg xmlns="http://www.w3.org/2000/svg" xmlns:xlink="http://www.w3.org/1999/xlink" width="160" zoomAndPan="magnify" viewBox="0 0 120 37.5" height="50" preserveAspectRatio="xMidYMid meet" version="1.0"><defs><g/></defs><g fill="#000000" fill-opacity="1"><g transform="translate(1.726203, 24.205234)"><g><path d="M 5.609375 -10.875 C 6.390625 -10.875 7.054688 -10.726562 7.609375 -10.4375 C 8.160156 -10.15625 8.578125 -9.757812 8.859375 -9.25 C 9.148438 -8.738281 9.296875 -8.144531 9.296875 -7.46875 C 9.296875 -6.78125 9.148438 -6.179688 8.859375 -5.671875 C 8.578125 -5.160156 8.160156 -4.757812 7.609375 -4.46875 C 7.054688 -4.1875 6.390625 -4.046875 5.609375 -4.046875 L 3.5625 -4.046875 L 3.5625 0 L 1.40625 0 L 1.40625 -10.875 Z M 5.328125 -5.75 C 6.523438 -5.75 7.125 -6.320312 7.125 -7.46875 C 7.125 -8.601562 6.523438 -9.171875 5.328125 -9.171875 L 3.5625 -9.171875 L 3.5625 -5.75 Z M 5.328125 -5.75 "/></g></g></g><g fill="#000000" fill-opacity="1"><g transform="translate(11.661737, 24.205234)"><g><path d="M 1.40625 0 L 1.40625 -10.875 L 5.78125 -10.875 C 6.90625 -10.875 7.753906 -10.613281 8.328125 -10.09375 C 8.898438 -9.582031 9.1875 -8.867188 9.1875 -7.953125 C 9.1875 -7.296875 9.019531 -6.753906 8.6875 -6.328125 C 8.351562 -5.910156 7.851562 -5.585938 7.1875 -5.359375 L 7.1875 -5.203125 C 7.53125 -5.054688 7.804688 -4.835938 8.015625 -4.546875 C 8.222656 -4.253906 8.421875 -3.820312 8.609375 -3.25 L 9.703125 0 L 7.484375 0 L 6.421875 -3.25 C 6.316406 -3.570312 6.195312 -3.820312 6.0625 -4 C 5.925781 -4.1875 5.75 -4.320312 5.53125 -4.40625 C 5.320312 -4.488281 5.050781 -4.53125 4.71875 -4.53125 L 3.5625 -4.53125 L 3.5625 0 Z M 5.515625 -6.234375 C 6.554688 -6.234375 7.078125 -6.71875 7.078125 -7.6875 C 7.078125 -8.675781 6.554688 -9.171875 5.515625 -9.171875 L 3.5625 -9.171875 L 3.5625 -6.234375 Z M 5.515625 -6.234375 "/></g></g></g><g fill="#000000" fill-opacity="1"><g transform="translate(21.827817, 24.205234)"><g><path d="M 3.5625 0 L 1.40625 0 L 1.40625 -10.875 L 3.5625 -10.875 Z M 3.5625 0 "/></g></g></g><g fill="#000000" fill-opacity="1"><g transform="translate(26.810457, 24.205234)"><g><path d="M 8.71875 -10.875 L 8.71875 -9.0625 L 5.578125 -9.0625 L 5.578125 0 L 3.4375 0 L 3.4375 -9.0625 L 0.296875 -9.0625 L 0.296875 -10.875 Z M 8.71875 -10.875 "/></g></g></g><g fill="#000000" fill-opacity="1"><g transform="translate(35.823831, 24.205234)"><g><path d="M 3.5625 0 L 1.40625 0 L 1.40625 -10.875 L 3.5625 -10.875 Z M 3.5625 0 "/></g></g></g><g fill="#000000" fill-opacity="1"><g transform="translate(40.806472, 24.205234)"><g><path d="M 4.8125 0.15625 C 4.0625 0.15625 3.390625 0.0625 2.796875 -0.125 C 2.210938 -0.3125 1.722656 -0.554688 1.328125 -0.859375 C 0.941406 -1.160156 0.644531 -1.492188 0.4375 -1.859375 L 1.625 -3.296875 L 1.8125 -3.296875 C 2.132812 -2.804688 2.546875 -2.414062 3.046875 -2.125 C 3.554688 -1.84375 4.144531 -1.703125 4.8125 -1.703125 C 5.394531 -1.703125 5.832031 -1.820312 6.125 -2.0625 C 6.414062 -2.3125 6.5625 -2.648438 6.5625 -3.078125 C 6.5625 -3.328125 6.515625 -3.539062 6.421875 -3.71875 C 6.328125 -3.894531 6.171875 -4.046875 5.953125 -4.171875 C 5.734375 -4.296875 5.4375 -4.398438 5.0625 -4.484375 L 3.671875 -4.8125 C 2.691406 -5.03125 1.960938 -5.394531 1.484375 -5.90625 C 1.003906 -6.425781 0.765625 -7.101562 0.765625 -7.9375 C 0.765625 -8.550781 0.914062 -9.09375 1.21875 -9.5625 C 1.53125 -10.03125 1.976562 -10.390625 2.5625 -10.640625 C 3.15625 -10.898438 3.859375 -11.03125 4.671875 -11.03125 C 5.515625 -11.03125 6.234375 -10.921875 6.828125 -10.703125 C 7.429688 -10.484375 7.9375 -10.144531 8.34375 -9.6875 L 7.28125 -8.234375 L 7.09375 -8.234375 C 6.789062 -8.546875 6.4375 -8.78125 6.03125 -8.9375 C 5.632812 -9.101562 5.179688 -9.1875 4.671875 -9.1875 C 4.085938 -9.1875 3.640625 -9.082031 3.328125 -8.875 C 3.023438 -8.664062 2.875 -8.378906 2.875 -8.015625 C 2.875 -7.671875 2.976562 -7.394531 3.1875 -7.1875 C 3.40625 -6.988281 3.78125 -6.832031 4.3125 -6.71875 L 5.75 -6.421875 C 6.800781 -6.203125 7.5625 -5.828125 8.03125 -5.296875 C 8.507812 -4.765625 8.75 -4.066406 8.75 -3.203125 C 8.75 -2.523438 8.601562 -1.929688 8.3125 -1.421875 C 8.019531 -0.921875 7.578125 -0.53125 6.984375 -0.25 C 6.398438 0.0195312 5.675781 0.15625 4.8125 0.15625 Z M 4.8125 0.15625 "/></g></g></g><g fill="#000000" fill-opacity="1"><g transform="translate(50.147064, 24.205234)"><g><path d="M 8.4375 -6.78125 L 8.4375 -10.875 L 10.578125 -10.875 L 10.578125 0 L 8.4375 0 L 8.4375 -4.953125 L 3.5625 -4.953125 L 3.5625 0 L 1.40625 0 L 1.40625 -10.875 L 3.5625 -10.875 L 3.5625 -6.78125 Z M 8.4375 -6.78125 "/></g></g></g><g fill="#000000" fill-opacity="1"><g transform="translate(62.142591, 24.205234)"><g/></g></g><g fill="#000000" fill-opacity="1"><g transform="translate(65.73456, 24.205234)"><g><path d="M 5.609375 -10.875 C 6.390625 -10.875 7.054688 -10.726562 7.609375 -10.4375 C 8.160156 -10.15625 8.578125 -9.757812 8.859375 -9.25 C 9.148438 -8.738281 9.296875 -8.144531 9.296875 -7.46875 C 9.296875 -6.78125 9.148438 -6.179688 8.859375 -5.671875 C 8.578125 -5.160156 8.160156 -4.757812 7.609375 -4.46875 C 7.054688 -4.1875 6.390625 -4.046875 5.609375 -4.046875 L 3.5625 -4.046875 L 3.5625 0 L 1.40625 0 L 1.40625 -10.875 Z M 5.328125 -5.75 C 6.523438 -5.75 7.125 -6.320312 7.125 -7.46875 C 7.125 -8.601562 6.523438 -9.171875 5.328125 -9.171875 L 3.5625 -9.171875 L 3.5625 -5.75 Z M 5.328125 -5.75 "/></g></g></g><g fill="#000000" fill-opacity="1"><g transform="translate(75.670094, 24.205234)"><g><path d="M 5.765625 0.15625 C 4.265625 0.15625 3.148438 -0.195312 2.421875 -0.90625 C 1.703125 -1.625 1.34375 -2.679688 1.34375 -4.078125 L 1.34375 -10.875 L 3.453125 -10.875 L 3.453125 -4.09375 C 3.453125 -3.300781 3.640625 -2.703125 4.015625 -2.296875 C 4.398438 -1.898438 4.984375 -1.703125 5.765625 -1.703125 C 7.304688 -1.703125 8.078125 -2.5 8.078125 -4.09375 L 8.078125 -10.875 L 10.1875 -10.875 L 10.1875 -4.078125 C 10.1875 -2.679688 9.820312 -1.625 9.09375 -0.90625 C 8.375 -0.195312 7.265625 0.15625 5.765625 0.15625 Z M 5.765625 0.15625 "/></g></g></g><g fill="#000000" fill-opacity="1"><g transform="translate(87.197099, 24.205234)"><g><path d="M 1.40625 0 L 1.40625 -10.875 L 5.78125 -10.875 C 6.90625 -10.875 7.753906 -10.613281 8.328125 -10.09375 C 8.898438 -9.582031 9.1875 -8.867188 9.1875 -7.953125 C 9.1875 -7.296875 9.019531 -6.753906 8.6875 -6.328125 C 8.351562 -5.910156 7.851562 -5.585938 7.1875 -5.359375 L 7.1875 -5.203125 C 7.53125 -5.054688 7.804688 -4.835938 8.015625 -4.546875 C 8.222656 -4.253906 8.421875 -3.820312 8.609375 -3.25 L 9.703125 0 L 7.484375 0 L 6.421875 -3.25 C 6.316406 -3.570312 6.195312 -3.820312 6.0625 -4 C 5.925781 -4.1875 5.75 -4.320312 5.53125 -4.40625 C 5.320312 -4.488281 5.050781 -4.53125 4.71875 -4.53125 L 3.5625 -4.53125 L 3.5625 0 Z M 5.515625 -6.234375 C 6.554688 -6.234375 7.078125 -6.71875 7.078125 -7.6875 C 7.078125 -8.675781 6.554688 -9.171875 5.515625 -9.171875 L 3.5625 -9.171875 L 3.5625 -6.234375 Z M 5.515625 -6.234375 "/></g></g></g><g fill="#000000" fill-opacity="1"><g transform="translate(97.363179, 24.205234)"><g><path d="M 10.4375 0 L 8.171875 0 L 7.359375 -2.5 L 3.1875 -2.5 L 2.375 0 L 0.15625 0 L 3.921875 -10.875 L 6.6875 -10.875 Z M 5.171875 -8.609375 L 3.765625 -4.3125 L 6.765625 -4.3125 L 5.359375 -8.609375 Z M 5.171875 -8.609375 "/></g></g></g><g fill="#000000" fill-opacity="1"><g transform="translate(107.960592, 24.205234)"><g><path d="M 6.46875 0 L 3.875 0 L 0.1875 -10.875 L 2.484375 -10.875 L 5.125 -2.765625 L 5.296875 -2.765625 L 7.90625 -10.875 L 10.125 -10.875 Z M 6.46875 0 "/></g></g></g></svg>